Genre:Drama | Thriller
Language: English
IMDB:http://www.imdb.com/title/tt1407084/
Source:DVD


General
Complete name :Twelve.2010.DvDRip.XviD.Ac3.Feel-Free
Format : AVI
Format/Info : Audio Video Interleave
File size : 1.23 GiB
Duration : 1h 30mn
Overall bit rate : 1 935 Kbps
Video #0
Codec ID : XVID
Codec ID/Hint : XviD
Duration : 1h 30mn
Bit rate : 1 541 Kbps
Width : 652 pixels
Height : 352 pixels
Display aspect ratio : 1.852
Frame rate : 25.000 fps
Resolution : 24 bits
Colorimetry : 4:2:0
Scan type : Progressive
Bits/(Pixel*Frame) : 0.269
Stream size : 1 000 MiB (80%)
Writing library : XviD 1.2.1 (UTC 2008-12-04)
Audio #1
ID : 1
Format : AC-3
Format/Info : Audio Coding 3
Codec ID : 2000
Duration : 1h 30mn
Bit rate mode : Constant
Bit rate : 384 Kbps
Channel(s) : 6 channels
Channel positions : Front: L C R, Surround: L R, LFE
Sampling rate : 48.0 KHz
Stream size : 249 MiB (20%)
Alignment : Split accross interleaves
Interleave, duration : 40 ms (1.00 video frame)
Interleave, preload duration : 500 ms

Plot
A young drug dealer watches as his high-rolling life is dismantled in the wake of his cousin's murder, which sees his best friend arrested for the crime





================================== 
http://thepiratebay.org/user/hiest
==================================






Screenshots:
 
http://www.starshare.ro/bitbucket/Twelve.2010.DvDRip.XviD.Ac3.Feel-Free.avi_thumbs_%5B2010.09.09_16.40.15%5D.jpg
 
http://www.starshare.ro/bitbucket/vlcsnap2010-09-09-16h50m40s63.jpg
 
http://www.starshare.ro/bitbucket/vlcsnap2010-09-09-16h50m52s188.jpg
 
http://www.starshare.ro/bitbucket/vlcsnap2010-09-09-16h51m11s126.jpg